<?xml version="1.0" encoding="UTF-8" standalone="no"?>
<svg
   xmlns:dc="http://purl.org/dc/elements/1.1/"
   xmlns:cc="http://creativecommons.org/ns#"
   xmlns:rdf="http://www.w3.org/1999/02/22-rdf-syntax-ns#"
   xmlns:svg="http://www.w3.org/2000/svg"
   xmlns="http://www.w3.org/2000/svg"
   id="svg3783"
   version="1.1"
   viewBox="0 0 75.406248 22.225001"
   height="84"
   width="285">
  <defs
     id="defs3777">
    <clipPath
       id="clipPath3715"
       clipPathUnits="userSpaceOnUse">
      <path
         id="path3713"
         d="M 0,84 H 285 V 0 H 0 Z" />
    </clipPath>
    <clipPath
       id="clipPath3751"
       clipPathUnits="userSpaceOnUse">
      <path
         id="path3749"
         d="M 97.7739,30.5811 H 281.742 V 5.1709 H 97.7739 Z" />
    </clipPath>
    <clipPath
       id="clipPath3715-3"
       clipPathUnits="userSpaceOnUse">
      <path
         id="path3713-5"
         d="M 0,84 H 285 V 0 H 0 Z" />
    </clipPath>
    <clipPath
       id="clipPath3751-1"
       clipPathUnits="userSpaceOnUse">
      <path
         id="path3749-9"
         d="M 97.7739,30.5811 H 281.742 V 5.1709 H 97.7739 Z" />
    </clipPath>
  </defs>
  <metadata
     id="metadata3780">
    <rdf:RDF>
      <cc:Work
         rdf:about="">
        <dc:format>image/svg+xml</dc:format>
        <dc:type
           rdf:resource="http://purl.org/dc/dcmitype/StillImage" />
        <dc:title></dc:title>
      </cc:Work>
    </rdf:RDF>
  </metadata>
  <g
     transform="translate(0,-274.77498)"
     id="layer1">
    <g
       id="g3709"
       transform="matrix(0.2654915,0,0,-0.2654915,0.45437973,297.23171)">
      <g
         clip-path="url(#clipPath3715-3)"
         id="g3711">
        <g
           transform="translate(114.1861,46.4176)"
           id="g3717">
          <path
             id="path3719"
             style="fill:#c00000;fill-opacity:1;fill-rule:nonzero;stroke:none"
             d="M 0,0 C -1.337,3.388 -2.66,6.744 -4.012,10.172 -5.309,6.744 -6.579,3.384 -7.858,0 Z m -16.412,-9.549 c 1.24,0.202 2.193,0.87 2.949,1.842 0.809,1.041 1.363,2.224 1.841,3.439 1.674,4.258 3.333,8.521 4.997,12.782 0.885,2.266 1.772,4.532 2.65,6.8 0.065,0.166 0.141,0.226 0.323,0.225 1.066,-0.01 2.132,-0.011 3.198,10e-4 0.2,0.002 0.289,-0.061 0.361,-0.242 1.27,-3.205 2.545,-6.407 3.822,-9.609 1.393,-3.493 2.784,-6.986 4.185,-10.476 0.41,-1.019 0.895,-2.001 1.528,-2.906 0.755,-1.08 1.781,-1.689 3.086,-1.841 0.073,-0.008 0.145,-0.02 0.229,-0.032 v -0.713 H -0.198 V -9.6 c 0.614,0.181 1.223,0.341 1.817,0.544 0.493,0.168 0.915,0.452 1.084,0.986 0.13,0.414 0.072,0.831 -0.066,1.226 -0.283,0.815 -0.587,1.622 -0.896,2.428 -0.305,0.799 -0.631,1.591 -0.938,2.39 -0.059,0.153 -0.133,0.212 -0.305,0.211 -2.982,-0.006 -5.964,-0.004 -8.946,-0.003 -0.137,0 -0.248,0.002 -0.312,-0.169 -0.5,-1.337 -1.035,-2.661 -1.505,-4.008 -0.157,-0.452 -0.238,-0.965 -0.207,-1.44 0.057,-0.857 0.673,-1.337 1.393,-1.677 0.337,-0.159 0.702,-0.255 1.047,-0.397 0.076,-0.032 0.162,-0.133 0.173,-0.212 0.026,-0.178 0.008,-0.362 0.008,-0.578 h -8.561 z" />
        </g>
        <g
           transform="translate(138.1612,59.8615)"
           id="g3721">
          <path
             id="path3723"
             style="fill:#c00000;fill-opacity:1;fill-rule:nonzero;stroke:none"
             d="m 0,0 c -0.005,-0.073 -0.01,-0.113 -0.01,-0.154 -10e-4,-6.477 -0.006,-12.955 0.006,-19.433 0.001,-0.706 0.218,-1.361 0.773,-1.855 0.412,-0.366 0.913,-0.55 1.439,-0.647 1.827,-0.337 3.638,-0.256 5.421,0.275 1.642,0.489 2.992,1.412 4.052,2.758 0.809,1.026 1.358,2.184 1.701,3.438 0.553,2.019 0.667,4.073 0.465,6.151 -0.157,1.613 -0.55,3.155 -1.338,4.581 -1.449,2.623 -3.68,4.147 -6.61,4.687 C 4.954,-0.025 4.002,0.012 3.044,0.002 2.038,-0.008 1.031,0 0,0 m -9.188,-23.739 v 0.709 c 0.549,0.194 1.087,0.389 1.627,0.576 1.05,0.362 1.53,1.14 1.608,2.206 0.038,0.522 0.079,1.045 0.08,1.567 0.006,5.272 0.008,10.544 -0.004,15.816 -0.001,0.494 -0.082,0.993 -0.174,1.48 -0.127,0.667 -0.541,1.144 -1.157,1.407 -0.578,0.247 -1.179,0.445 -1.777,0.643 -0.163,0.055 -0.234,0.112 -0.216,0.287 0.016,0.155 0.003,0.313 0.003,0.494 0.106,0.005 0.195,0.014 0.283,0.014 4.58,0.001 9.161,0.018 13.742,-0.006 2.32,-0.013 4.603,-0.329 6.806,-1.101 2.074,-0.726 3.91,-1.834 5.438,-3.419 1.786,-1.851 2.815,-4.068 3.113,-6.622 0.231,-1.986 0.12,-3.949 -0.499,-5.861 -0.88,-2.72 -2.636,-4.734 -5.074,-6.174 -1.617,-0.955 -3.38,-1.492 -5.229,-1.773 -1.32,-0.2 -2.647,-0.244 -3.978,-0.243 -4.748,0.002 -9.495,0 -14.242,0 z" />
        </g>
        <g
           transform="translate(168.0061,59.8615)"
           id="g3725">
          <path
             id="path3727"
             style="fill:#c00000;fill-opacity:1;fill-rule:nonzero;stroke:none"
             d="m 0,0 v -0.329 -4.773 c 0,-4.773 -0.003,-9.545 0.003,-14.318 0.001,-0.76 0.178,-1.468 0.772,-2.01 0.415,-0.378 0.923,-0.561 1.457,-0.661 1.769,-0.329 3.525,-0.252 5.259,0.229 1.399,0.387 2.617,1.097 3.627,2.14 1.105,1.14 1.828,2.505 2.258,4.024 0.469,1.661 0.654,3.36 0.548,5.08 -0.055,0.901 -0.135,1.808 -0.305,2.693 -0.376,1.96 -1.227,3.701 -2.637,5.136 C 9.194,-0.97 6.954,-0.17 4.459,-0.03 3.297,0.035 2.129,-0.006 0.963,0 0.656,0.001 0.348,0 0,0 m -9.176,-23.73 c 0,0.219 -0.016,0.419 0.01,0.613 0.008,0.066 0.116,0.141 0.194,0.17 0.506,0.187 1.017,0.36 1.524,0.542 0.913,0.328 1.381,1.002 1.48,1.944 0.053,0.511 0.104,1.026 0.105,1.54 0.007,5.363 0.005,10.726 0.002,16.089 -0.001,0.315 -0.033,0.63 -0.064,0.944 -0.1,1.017 -0.626,1.715 -1.586,2.07 -0.474,0.175 -0.955,0.336 -1.44,0.477 -0.181,0.052 -0.245,0.128 -0.229,0.307 0.013,0.148 0.003,0.298 0.003,0.478 0.103,0.006 0.19,0.016 0.278,0.016 4.589,0.001 9.177,0.02 13.766,-0.007 2.515,-0.015 4.982,-0.38 7.341,-1.308 1.625,-0.638 3.09,-1.532 4.375,-2.723 2.044,-1.894 3.25,-4.219 3.597,-6.98 0.284,-2.257 0.126,-4.474 -0.702,-6.616 -0.486,-1.255 -1.192,-2.372 -2.109,-3.357 -1.993,-2.139 -4.487,-3.338 -7.326,-3.844 -1.042,-0.186 -2.109,-0.311 -3.166,-0.32 -5.287,-0.041 -10.574,-0.034 -15.861,-0.043 -0.049,0 -0.099,0.004 -0.192,0.008" />
        </g>
        <g
           transform="translate(262.2369,56.59)"
           id="g3729">
          <path
             id="path3731"
             style="fill:#c00000;fill-opacity:1;fill-rule:nonzero;stroke:none"
             d="M 0,0 C -1.297,-3.432 -2.567,-6.792 -3.844,-10.169 H 4.012 C 2.679,-6.789 1.352,-3.428 0,0 m 16.787,-19.794 v -0.657 H 3.792 c 0,0.203 -0.019,0.402 0.01,0.595 0.01,0.067 0.13,0.146 0.215,0.17 0.556,0.165 1.128,0.284 1.673,0.479 0.586,0.209 1.039,0.593 1.08,1.268 0.019,0.291 -0.017,0.606 -0.114,0.88 -0.405,1.142 -0.839,2.273 -1.269,3.406 -0.182,0.482 -0.385,0.956 -0.566,1.438 -0.061,0.163 -0.141,0.228 -0.324,0.228 -2.99,-0.006 -5.98,-0.005 -8.97,-0.003 -0.124,0 -0.212,-0.011 -0.267,-0.155 -0.485,-1.281 -1.001,-2.551 -1.458,-3.842 -0.167,-0.47 -0.277,-0.988 -0.277,-1.483 10e-4,-0.847 0.547,-1.385 1.263,-1.74 0.384,-0.191 0.799,-0.323 1.206,-0.464 0.133,-0.045 0.192,-0.099 0.184,-0.242 -0.01,-0.173 -0.003,-0.346 -0.003,-0.535 h -8.574 c 0,0.21 -0.009,0.423 0.007,0.633 0.004,0.045 0.095,0.107 0.155,0.12 1.432,0.297 2.416,1.195 3.186,2.375 0.824,1.262 1.363,2.658 1.907,4.052 1.148,2.939 2.294,5.879 3.44,8.819 1.243,3.187 2.486,6.375 3.725,9.564 C 0.092,5.296 0.18,5.371 0.392,5.368 1.441,5.354 2.491,5.357 3.54,5.366 3.738,5.367 3.838,5.321 3.919,5.118 c 2.506,-6.304 5.023,-12.602 7.534,-18.904 0.483,-1.213 0.964,-2.426 1.647,-3.545 0.543,-0.889 1.189,-1.678 2.202,-2.051 0.471,-0.173 0.97,-0.272 1.485,-0.412" />
        </g>
        <g
           transform="translate(207.0215,52.6764)"
           id="g3733">
          <path
             id="path3735"
             style="fill:#c00000;fill-opacity:1;fill-rule:nonzero;stroke:none"
             d="m 0,0 v -7.826 c -0.257,0 -0.505,-0.011 -0.75,0.009 -0.053,0.005 -0.118,0.114 -0.143,0.188 -0.157,0.453 -0.253,0.935 -0.465,1.359 -0.5,0.998 -1.38,1.478 -2.457,1.604 -0.461,0.054 -0.93,0.052 -1.395,0.054 -1.215,0.007 -2.431,0.003 -3.647,0.003 H -9.15 v -0.294 c 0,-2.44 -0.008,-4.88 0.008,-7.32 0.002,-0.385 0.073,-0.779 0.172,-1.153 0.255,-0.962 0.973,-1.412 1.893,-1.579 0.439,-0.08 0.889,-0.126 1.335,-0.131 0.823,-0.009 1.652,-0.035 2.469,0.049 1.552,0.16 2.712,1.002 3.598,2.256 0.512,0.725 0.88,1.522 1.185,2.354 H 2.318 C 2.155,-12.465 1.994,-14.488 1.83,-16.532 h -20.154 v 0.697 c 0.429,0.123 0.862,0.232 1.285,0.373 0.266,0.089 0.523,0.213 0.774,0.342 0.842,0.434 1.07,1.228 1.168,2.075 0.061,0.535 0.084,1.078 0.085,1.617 0.006,5.263 0.008,10.526 -0.004,15.79 -10e-4,0.494 -0.074,0.993 -0.164,1.48 -0.141,0.766 -0.621,1.282 -1.34,1.547 -0.52,0.192 -1.06,0.334 -1.597,0.474 -0.17,0.045 -0.242,0.097 -0.223,0.277 0.016,0.155 0.003,0.313 0.003,0.487 H 1.497 V 3.05 H 0.756 C 0.541,3.639 0.351,4.232 0.11,4.802 -0.212,5.562 -0.632,6.261 -1.393,6.67 -2.058,7.028 -2.788,7.171 -3.532,7.179 -5.356,7.198 -7.18,7.185 -9.004,7.184 c -0.04,0 -0.079,-0.006 -0.132,-0.01 V -3.159 c 0.073,-0.004 0.138,-0.009 0.202,-0.009 1.541,-10e-4 3.082,-0.014 4.622,0.005 0.829,0.009 1.625,0.182 2.264,0.765 0.553,0.504 0.831,1.174 1.045,1.871 0.161,0.525 0.151,0.528 0.696,0.527 0.091,0 0.182,0 0.307,0" />
        </g>
        <g
           transform="translate(232.7591,35.6539)"
           id="g3737">
          <path
             id="path3739"
             style="fill:#c00000;fill-opacity:1;fill-rule:nonzero;stroke:none"
             d="m 0,0 v 7.625 c 0.237,0 0.462,0.017 0.68,-0.011 C 0.743,7.606 0.819,7.473 0.838,7.386 1.104,6.215 1.529,5.111 2.239,4.137 3.504,2.404 5.198,1.439 7.356,1.307 c 1.421,-0.086 2.77,0.113 3.969,0.941 0.98,0.677 1.528,1.593 1.446,2.805 C 12.696,6.154 12.182,7.054 11.35,7.761 10,8.908 8.458,9.766 6.934,10.651 5.575,11.439 4.207,12.216 2.977,13.202 0.98,14.805 0.014,16.883 0.152,19.457 c 0.083,1.535 0.583,2.904 1.596,4.073 1.09,1.258 2.457,2.065 4.066,2.469 1.745,0.438 3.486,0.375 5.232,-0.022 0.726,-0.166 1.468,-0.271 2.207,-0.373 0.506,-0.07 0.927,0.169 1.286,0.497 0.175,0.16 0.352,0.222 0.579,0.2 0.147,-0.015 0.296,-0.003 0.457,-0.003 v -6.637 c -0.235,0 -0.467,-0.015 -0.694,0.009 -0.066,0.007 -0.145,0.116 -0.176,0.195 -0.345,0.883 -0.811,1.694 -1.442,2.402 -1.049,1.177 -2.272,2.104 -3.842,2.454 -1.525,0.34 -2.966,0.119 -4.23,-0.853 -1.41,-1.084 -1.661,-2.707 -0.695,-4.2 0.452,-0.698 1.086,-1.187 1.775,-1.611 1.749,-1.075 3.517,-2.118 5.257,-3.206 0.9,-0.562 1.816,-1.124 2.62,-1.809 1.294,-1.102 2.351,-2.424 2.749,-4.124 C 17.485,6.407 17.055,4.116 15.152,2.258 13.828,0.966 12.198,0.248 10.374,-0.031 8.52,-0.314 6.695,-0.097 4.881,0.293 4.102,0.461 3.323,0.629 2.541,0.78 1.841,0.915 1.256,0.735 0.851,0.108 0.818,0.056 0.737,0.008 0.675,0.005 0.46,-0.008 0.244,0 0,0" />
        </g>
        <g
           transform="translate(212.014,35.6542)"
           id="g3741">
          <path
             id="path3743"
             style="fill:#c00000;fill-opacity:1;fill-rule:nonzero;stroke:none"
             d="M 0,0 V 7.605 H 0.745 C 0.948,6.984 1.111,6.354 1.357,5.76 2.194,3.739 3.576,2.253 5.711,1.603 7.357,1.102 9.015,1.114 10.606,1.835 11.653,2.309 12.471,3.039 12.715,4.229 12.947,5.361 12.585,6.352 11.876,7.22 11.247,7.989 10.42,8.533 9.587,9.048 8.068,9.988 6.511,10.866 5,11.818 4.138,12.361 3.291,12.946 2.519,13.608 1.246,14.7 0.479,16.12 0.228,17.782 c -0.25,1.654 -0.056,3.256 0.798,4.726 0.886,1.526 2.193,2.573 3.834,3.189 2.017,0.758 4.076,0.758 6.158,0.284 0.671,-0.153 1.355,-0.248 2.034,-0.367 0.548,-0.095 1.026,0.075 1.426,0.437 0.214,0.194 0.431,0.284 0.713,0.249 0.122,-0.015 0.247,-0.002 0.386,-0.002 V 19.66 c -0.234,0 -0.472,-0.006 -0.709,0.006 -0.046,0.002 -0.112,0.064 -0.13,0.112 -0.399,1.086 -0.999,2.051 -1.816,2.863 -1.194,1.186 -2.559,2.083 -4.298,2.203 -1.456,0.1 -2.769,-0.27 -3.832,-1.33 -0.982,-0.98 -1.138,-2.418 -0.438,-3.622 0.522,-0.9 1.321,-1.48 2.175,-2.003 1.998,-1.224 4.001,-2.439 6.005,-3.654 1.49,-0.904 2.724,-2.071 3.629,-3.567 0.591,-0.977 0.91,-2.039 0.956,-3.187 0.07,-1.722 -0.32,-3.3 -1.431,-4.651 C 14.756,1.698 13.556,0.938 12.193,0.432 10.791,-0.089 9.334,-0.216 7.849,-0.137 6.331,-0.056 4.862,0.301 3.387,0.633 3.04,0.711 2.685,0.771 2.331,0.806 1.724,0.867 1.218,0.683 0.88,0.139 0.842,0.078 0.76,0.011 0.694,0.006 0.472,-0.01 0.249,0 0,0" />
        </g>
        <g
           id="g3745">
          <g
             id="g3747" />
          <g
             id="g3759">
            <g
               style="opacity:0.75"
               id="g3757"
               clip-path="url(#clipPath3751-1)">
              <text
                 id="text3755"
                 style="font-variant:normal;font-weight:normal;font-stretch:normal;font-size:16px;font-family:Vani;-inkscape-font-specification:Vani;writing-mode:lr-tb;fill:#074500;fill-opacity:1;fill-rule:nonzero;stroke:none"
                 transform="matrix(1,0,0,-1,97.7739,17.0376)">
                <tspan
                   id="tspan3753"
                   y="0"
                   x="0 9.9040003 19.216 26.944 30.799999 42.591999 50.655998 58.528 62.383999 67.903999 76.528 80.384003 87.648003 96.272003 110.368 115.568 124.192 130.752 136.272 140.12801 144.70399 149.392 157.34399 162.032 171.48801 179.632">The way to comfort living.</tspan>
              </text>
            </g>
          </g>
        </g>
        <g
           transform="translate(80.813,42.187)"
           id="g3761">
          <path
             id="path3763"
             style="fill:#077401;fill-opacity:1;fill-rule:nonzero;stroke:none"
             d="m 0,0 c 0,-22.091 -17.909,-40 -40,-40 -22.091,0 -40,17.909 -40,40 0,22.091 17.909,40 40,40 C -17.909,40 0,22.091 0,0" />
        </g>
        <g
           transform="translate(11.1204,23.0853)"
           id="g3765">
          <path
             id="path3767"
             style="fill:#cf0000;fill-opacity:1;fill-rule:nonzero;stroke:none"
             d="M 0,0 C 0,0 12.009,-20.52 38.109,-15.981 64.208,-11.442 68.936,15.035 67.612,24.492 66.288,33.948 59.007,46.525 54.563,47.849 50.118,49.173 39.811,50.875 34.988,42.553 30.165,34.232 23.262,13.806 17.116,10.591 10.969,7.376 -0.757,3.783 0,0" />
        </g>
        <g
           transform="translate(27.2879,76.3714)"
           id="g3769">
          <path
             id="path3771"
             style="fill:#ffffff;fill-opacity:1;fill-rule:nonzero;stroke:none"
             d="m 0,0 c 0,0 -9.573,-3.924 -15.531,-13.475 -5.957,-9.551 -7.458,-20.993 -3.628,-27.849 3.83,-6.856 13.529,-6.43 18.399,2.884 0,0 8.561,18.014 10.216,21.371 1.655,3.357 6.337,11.726 12.389,14.043 6.052,2.317 10.876,1.229 15.556,-0.047 4.681,-1.277 3.689,-1.882 3.263,-4.672 -0.425,-2.789 -3.451,-15.626 -4.113,-17.626 H 26.007 c 0,0 5.201,14.789 5.201,17.532 0,0 -3.688,1.605 -7.045,-2.887 -3.357,-4.492 -6.477,-14.645 -7.47,-16.645 h 5.059 l -2.884,-9 h -5.059 c 0,0 -3.215,-13.47 -11.726,-18.718 -8.511,-5.248 -16.17,-0.162 -16.17,-0.162 0,0 6.997,-9.774 19.291,-12.895 12.293,-3.12 22.742,0.007 29.881,5.019 7.14,5.012 13.003,12.036 15.367,23.1 2.364,11.064 -1.182,24.765 -11.017,33.56 l 0.189,1.413 c 0,0 3.925,-3.407 6.431,-7.331 2.506,-3.925 4.822,-9.032 5.721,-14.801 0.898,-5.768 0.945,-12.482 -2.979,-21.702 -3.924,-9.22 -12.435,-14.989 -14.705,-16.313 -2.269,-1.324 -12.529,-7.565 -26.808,-4.681 -14.279,2.885 -22.08,12.577 -25.721,19.149 -3.641,6.572 -5.343,14.563 -3.073,24.681 C -19.241,-15.934 -13.336,-5.816 0,0" />
        </g>
        <g
           transform="translate(52.5861,48.0026)"
           id="g3773">
          <path
             id="path3775"
             style="fill:#ffffff;fill-opacity:1;fill-rule:nonzero;stroke:none"
             d="m 0,0 c 0,0 -4.681,-13.475 -5.887,-17.447 -1.205,-3.971 -1.843,-10 2.696,-12.766 4.539,-2.766 16.808,0.355 19.929,11.49 0,0 -3.688,-3.192 -8.086,-2.625 0,0 -3.758,0.355 -2.411,5.178 1.348,4.822 2.128,7.659 2.128,7.659 0,0 6.454,-0.126 10.567,3.27 4.114,3.397 4.043,6.659 4.114,8.149 0,0 -3.688,-2.695 -8.156,-2.766 C 10.426,0.071 0,0 0,0" />
        </g>
      </g>
    </g>
  </g>
</svg>
